PathFileType	4	(X/Y/Z)	/Users/itak/Documents/Research/Walk-IL/dataset/trc/00239_00009.trc
DataRate	CameraRate	NumFrames	NumMarkers	Units	OrigDataRate	OrigDataStartFrame	OrigNumFrames
100.000000	100.000000	4	53	mm	100.000000	738	844
Frame#	Time	RPSI			LPSI			L3			STRN			T10			C7			CLAV			RBAK			LBAK			LSHO			LUPA			LAEL			LAOL			LWTS			LWPS			LFRA			LIFD			LHPS			LHTS			RSHO			RUPA			RAEL			RAOL			RWTS			RWPS			RFRA			RIFD			RHTS			RHPS			RBHD			LFHD			RFHD			LBHD			LHIP			RHIP			RASI			LASI			LKNE			LTHI			LANK			LTIP			LTOE			LMT1			LMT5			LHEE			RKNE			RTHI			RANK			RTIP			RTOE			RMT1			RMT5			RHEE			
		X1	Y1	Z1	X2	Y2	Z2	X3	Y3	Z3	X4	Y4	Z4	X5	Y5	Z5	X6	Y6	Z6	X7	Y7	Z7	X8	Y8	Z8	X9	Y9	Z9	X10	Y10	Z10	X11	Y11	Z11	X12	Y12	Z12	X13	Y13	Z13	X14	Y14	Z14	X15	Y15	Z15	X16	Y16	Z16	X17	Y17	Z17	X18	Y18	Z18	X19	Y19	Z19	X20	Y20	Z20	X21	Y21	Z21	X22	Y22	Z22	X23	Y23	Z23	X24	Y24	Z24	X25	Y25	Z25	X26	Y26	Z26	X27	Y27	Z27	X28	Y28	Z28	X29	Y29	Z29	X30	Y30	Z30	X31	Y31	Z31	X32	Y32	Z32	X33	Y33	Z33	X34	Y34	Z34	X35	Y35	Z35	X36	Y36	Z36	X37	Y37	Z37	X38	Y38	Z38	X39	Y39	Z39	X40	Y40	Z40	X41	Y41	Z41	X42	Y42	Z42	X43	Y43	Z43	X44	Y44	Z44	X45	Y45	Z45	X46	Y46	Z46	X47	Y47	Z47	X48	Y48	Z48	X49	Y49	Z49	X50	Y50	Z50	X51	Y51	Z51	X52	Y52	Z52	X53	Y53	Z53	

739	7.38	476.7496643066406	1041.795776367188	572.8147583007812	537.2474975585938	1047.611083984375	676.88623046875	517.0036010742188	1128.230590820312	630.5059814453125	302.9218139648438	1308.596435546875	758.30322265625	512.5997314453125	1254.382934570312	617.7144165039062	454.92041015625	1515.39990234375	649.2465209960938	320.9178771972656	1426.150024414062	740.9771728515625	481.3727111816406	1375.9697265625	547.1796875	534.2249755859375	1479.831420898438	730.9235229492188	490.7888488769531	1481.640014648438	827.3793334960938	562.2691040039062	1366.722778320312	879.325927734375	574.9983520507812	1159.89404296875	921.2265014648438	602.2562866210938	1135.73876953125	841.893798828125	439.9898376464844	946.2868041992188	955.8515014648438	506.4278259277344	924.2178344726562	1004.69384765625	555.0935668945312	1057.446044921875	956.6852416992188	410.0002136230469	757.5426635742188	991.1659545898438	476.305419921875	841.91650390625	1023.496765136719	410.7024230957031	855.1865234375	1006.974548339844	313.7960205078125	1468.440185546875	542.4247436523438	292.433837890625	1402.838745117188	476.83447265625	283.6568908691406	1120.5009765625	438.5199584960938	361.5364074707031	1112.254638671875	493.6341247558594	168.7794494628906	942.606689453125	584.0438232421875	175.0148162841797	911.18896484375	505.4229125976562	247.3433685302734	1055.289916992188	452.4749450683594	122.8103179931641	759.7034301757812	631.9190063476562	105.5090560913086	834.2332153320312	611.8492431640625	124.0641326904297	817.5877075195312	544.7886352539062	375.1666259765625	1678.102661132812	636.6548461914062	241.4188232421875	1692.210083007812	820.1734619140625	192.5827941894531	1684.878662109375	732.2422485351562	399.8191833496094	1685.999877929688	774.3648071289062	517.8711547851562	990.3262329101562	850.9901733398438	342.0635070800781	999.8155517578125	527.9312744140625	270.5965270996094	1041.325927734375	606.1347045898438	406.5211181640625	1032.772827148438	856.0153198242188	374.668212890625	521.2579956054688	914.8313598632812	422.3380126953125	660.2005615234375	912.4525146484375	554.21142578125	64.63247680664062	870.3013916015625	471.2710876464844	312.416748046875	899.6234130859375	344.2183227539062	58.42326736450195	920.684814453125	383.1082763671875	54.34325408935547	851.408447265625	451.6602478027344	48.57136917114258	942.8162841796875	583.4607543945312	81.55268096923828	797.4506225585938	315.5833435058594	511.2925720214844	627.6907958984375	286.7808837890625	776.239990234375	570.5282592773438	401.4155578613281	34.36368560791016	668.773193359375	318.7451171875	393.2984924316406	658.5685424804688	224.4161834716797	42.25544738769531	792.8561401367188	294.3102416992188	40.01826858520508	808.2603759765625	290.2098999023438	34.81227874755859	687.96240234375	481.5442810058594	34.46639251708984	696.4509887695312	
740	7.390000000000001	475.5441589355469	1042.010375976562	574.995849609375	535.2960815429688	1047.83984375	679.5075073242188	515.28271484375	1128.498779296875	632.9483032226562	300.3681030273438	1308.796997070312	759.291015625	511.0494384765625	1254.641357421875	620.1248779296875	453.0752563476562	1515.64599609375	651.354248046875	318.42626953125	1426.351806640625	742.102294921875	480.2365112304688	1376.255981445312	549.4150390625	531.8050537109375	1480.063842773438	733.5807495117188	487.7038879394531	1481.82080078125	829.7286987304688	558.781005859375	1366.908813476562	882.174560546875	571.2086791992188	1160.083129882812	924.1849365234375	598.9957885742188	1135.897583007812	845.0828857421875	435.59326171875	946.733154296875	957.80078125	501.5994873046875	924.54541015625	1007.151428222656	550.8453979492188	1057.677368164062	959.5032348632812	404.961669921875	758.0383911132812	992.8543090820312	471.1297912597656	842.2903442382812	1025.7294921875	405.6807861328125	855.6466674804688	1008.616577148438	312.6249389648438	1468.676391601562	543.5752563476562	291.7025756835938	1403.061767578125	477.8313293457031	283.3024291992188	1120.691040039062	439.6643371582031	360.9126281738281	1112.527465820312	495.2243347167969	167.9179992675781	942.1920776367188	584.0211791992188	174.7602233886719	911.0140380859375	505.310546875	247.1393890380859	1055.3564453125	453.1097717285156	122.2523651123047	758.9403076171875	630.97509765625	105.0676803588867	833.6453247070312	611.3700561523438	123.8270416259766	817.192626953125	544.091064453125	373.2962341308594	1678.251586914062	638.136962890625	238.79541015625	1692.558837890625	821.1000366210938	190.3132171630859	1685.220581054688	732.9700927734375	397.3820495605469	1686.1748046875	775.9439086914062	514.5587158203125	990.7545776367188	853.5357055664062	341.2758178710938	999.8641967773438	528.9651489257812	269.0512084960938	1041.630737304688	606.5355224609375	403.0214538574219	1033.18798828125	857.5587158203125	369.6334228515625	522.0370483398438	916.901123046875	417.7321166992188	660.8761596679688	914.7298583984375	543.53125	62.82318878173828	877.0465698242188	463.5316772460938	311.7571105957031	904.0955810546875	332.52783203125	59.49429321289062	923.3414916992188	372.7050170898438	54.68388366699219	854.8377075195312	439.4375	48.39963531494141	947.5680541992188	574.4373168945312	79.09063720703125	804.7105712890625	315.0377807617188	511.3755798339844	627.9744873046875	285.9697265625	776.3456420898438	571.140625	401.399658203125	34.43288803100586	668.8099975585938	318.3522033691406	393.3222045898438	658.7409057617188	224.279052734375	42.24940490722656	792.7236938476562	294.2207336425781	40.075439453125	808.1535034179688	290.1591186523438	34.71706771850586	687.8353271484375	481.5942077636719	34.62771606445312	696.5440063476562	
741	7.4	474.3717651367188	1042.230346679688	577.2080688476562	533.3731689453125	1048.064819335938	682.1483154296875	513.595947265625	1128.7509765625	635.4076538085938	297.8575744628906	1309.004272460938	760.2384643554688	509.5301513671875	1254.887573242188	622.538818359375	451.3057556152344	1515.887573242188	653.4478759765625	316.0014343261719	1426.560791015625	743.1951293945312	479.1719665527344	1376.529052734375	551.6505126953125	529.4393310546875	1480.280517578125	736.2260131835938	484.6738586425781	1481.981323242188	832.0552978515625	555.3386840820312	1367.064819335938	884.9924926757812	567.47119140625	1160.231689453125	927.0855102539062	595.7845458984375	1136.044799804688	848.2180786132812	431.313720703125	947.0677490234375	959.5834350585938	496.88818359375	924.7855224609375	1009.459411621094	546.6694946289062	1057.85302734375	962.2266845703125	400.1155395507812	758.408203125	994.3094482421875	466.0919189453125	842.5548706054688	1027.7802734375	400.8114929199219	855.9597778320312	1010.047424316406	311.5447387695312	1468.922485351562	544.6860961914062	291.0821228027344	1403.295288085938	478.7906799316406	283.1017150878906	1120.89697265625	440.7294921875	360.4276733398438	1112.828735351562	496.7400207519531	167.26708984375	941.6967163085938	583.8465576171875	174.737548828125	910.7833251953125	505.0391845703125	247.1067352294922	1055.429321289062	453.6538696289062	122.0431976318359	758.0490112304688	629.8184204101562	104.9438095092773	832.98095703125	610.7610473632812	123.8671875	816.72265625	543.2015380859375	371.5137023925781	1678.409790039062	639.6109008789062	236.2613677978516	1692.90478515625	822.0110473632812	188.1298828125	1685.569458007812	733.685546875	395.0235595703125	1686.344970703125	777.5133666992188	511.2928466796875	991.1597900390625	856.0852661132812	340.4932861328125	999.8825073242188	530.0021362304688	267.6018371582031	1041.926147460938	607.040771484375	399.5831604003906	1033.578491210938	859.0991821289062	364.8331298828125	522.7288208007812	918.8390502929688	413.3087158203125	661.4757080078125	916.9092407226562	533.0850830078125	61.09344100952148	883.189697265625	455.989013671875	311.0899658203125	908.2099609375	321.1790161132812	60.51199340820312	925.2880859375	362.6435546875	55.04442977905273	857.5989379882812	427.4687805175781	48.18251037597656	951.6124267578125	565.6309204101562	76.77691650390625	811.42529296875	314.5473327636719	511.4729614257812	628.2490234375	285.208740234375	776.470703125	571.7791748046875	401.38818359375	34.50813293457031	668.851806640625	317.9991455078125	393.3721313476562	658.9088745117188	224.1380310058594	42.24260330200195	792.591064453125	294.1294250488281	40.13570785522461	808.0465087890625	290.103271484375	34.61906814575195	687.7052001953125	481.6408996582031	34.79107666015625	696.6499633789062	
742	7.41	473.2284851074219	1042.455444335938	579.4500732421875	531.4739379882812	1048.2822265625	684.8062744140625	511.946044921875	1128.984375	637.8836669921875	295.3876647949219	1309.212890625	761.14990234375	508.0397033691406	1255.11962890625	624.9593505859375	449.6091613769531	1516.120971679688	655.5274047851562	313.644287109375	1426.771606445312	744.2618408203125	478.1723937988281	1376.785522460938	553.88720703125	527.1278686523438	1480.480834960938	738.8577880859375	481.6978454589844	1482.123657226562	834.359130859375	551.9461059570312	1367.191528320312	887.7781982421875	563.7861328125	1160.339965820312	929.9255981445312	592.62841796875	1136.178955078125	851.2949829101562	427.154052734375	947.291748046875	961.2071533203125	492.297119140625	924.939697265625	1011.62255859375	542.5647583007812	1057.97314453125	964.85546875	395.4683227539062	758.6520385742188	995.54541015625	461.1997985839844	842.7122192382812	1029.656127929688	396.1005249023438	856.1240234375	1011.278625488281	310.5524597167969	1469.171997070312	545.7628173828125	290.56787109375	1403.533203125	479.7179565429688	283.0541687011719	1121.115234375	441.7076110839844	360.0785827636719	1113.1533203125	498.1705017089844	166.8307647705078	941.1318359375	583.529541015625	174.9375305175781	910.4985961914062	504.6185913085938	247.2360076904297	1055.510009765625	454.1098022460938	122.1636734008789	757.0543212890625	628.4757690429688	105.1068649291992	832.2461547851562	610.0164184570312	124.1745834350586	816.185791015625	542.1439208984375	369.81884765625	1678.572998046875	641.0757446289062	233.8175354003906	1693.250244140625	822.9063110351562	186.0346374511719	1685.929565429688	734.3875122070312	392.7463073730469	1686.506103515625	779.0720825195312	508.080810546875	991.5327758789062	858.6354370117188	339.7041625976562	999.870849609375	531.0554809570312	266.2476196289062	1042.202026367188	607.6451416015625	396.22021484375	1033.938110351562	860.6478271484375	360.2541809082031	523.3275756835938	920.6390380859375	409.0823364257812	661.9881591796875	918.9901733398438	522.9102783203125	59.43917465209961	888.7493286132812	448.6549682617188	310.4152221679688	911.9696655273438	310.2081909179688	61.47445678710938	926.5565795898438	352.958251953125	55.41664123535156	859.7302856445312	415.7908325195312	47.91552734375	954.9817504882812	557.0750732421875	74.60359954833984	817.613037109375	314.1078491210938	511.5848693847656	628.5188598632812	284.4988708496094	776.615478515625	572.4475708007812	401.3824768066406	34.58927536010742	668.899658203125	317.677490234375	393.4476928710938	659.0745849609375	223.9949035644531	42.23476791381836	792.4601440429688	294.0374145507812	40.19752883911133	807.94189453125	290.0424194335938	34.52080917358398	687.5731811523438	481.685791015625	34.96094512939453	696.7681274414062	
